<svg width="364" height="233" viewBox="0 0 364 233" fill="none" xmlns="http://www.w3.org/2000/svg">
<g filter="url(#filter0_b_47_428)">
<rect x="2" y="1.31352" width="360" height="230" rx="15.1928" fill="url(#paint0_linear_47_428)"/>
<rect x="1.36697" y="0.680488" width="361.266" height="231.266" rx="15.8259" stroke="url(#paint1_radial_47_428)" stroke-width="1.26607"/>
<rect x="1.36697" y="0.680488" width="361.266" height="231.266" rx="15.8259" stroke="url(#paint2_linear_47_428)" stroke-opacity="0.4" stroke-width="1.26607"/>
<rect x="1.36697" y="0.680488" width="361.266" height="231.266" rx="15.8259" stroke="url(#paint3_linear_47_428)" stroke-width="1.26607"/>
</g>
<mask id="mask0_47_428" style="mask-type:alpha" maskUnits="userSpaceOnUse" x="2" y="1" width="360" height="231">
<rect x="2" y="1.31352" width="360" height="230" rx="15.4011" fill="#16084C"/>
</mask>
<g mask="url(#mask0_47_428)">
<g filter="url(#filter1_f_47_428)">
<path d="M453.518 -134.193C475.881 -88.0398 416.166 -12.1784 320.142 35.2482C224.118 82.6748 128.147 83.7072 105.784 37.5542C83.4215 -8.5989 143.136 -84.4602 239.16 -131.887C335.184 -179.313 431.156 -180.346 453.518 -134.193Z" fill="#F9CC2F"/>
</g>
<g filter="url(#filter2_f_47_428)">
<path d="M401.134 -168.443C423.497 -122.29 363.783 -46.4285 267.758 0.99813C171.734 48.4248 75.7629 49.4572 53.4003 3.3041C31.0377 -42.849 90.7521 -118.71 186.776 -166.137C282.8 -213.564 378.772 -214.596 401.134 -168.443Z" fill="#25C7FA"/>
</g>
</g>
<path fill-rule="evenodd" clip-rule="evenodd" d="M23.3845 37.5783L23.3807 37.5834L23.3771 37.5886C23.1722 37.8787 22.7132 37.964 22.3542 37.7105C22.0669 37.5075 21.9805 37.0553 22.2252 36.698C22.5903 36.2326 22.8554 35.6886 23.0295 35.1568C23.2108 34.6031 23.2951 33.9739 23.2918 33.3569C23.2886 32.7398 23.1976 32.1116 23.0104 31.5599C22.8306 31.03 22.5597 30.4888 22.1897 30.0273C21.9412 29.6726 22.0228 29.2195 22.3079 29.0136C22.6642 28.7562 23.124 28.8366 23.332 29.1245L23.3357 29.1297L23.3396 29.1347C23.8001 29.742 24.1778 30.4167 24.4035 31.0786C24.6411 31.8573 24.7925 32.6106 24.7964 33.3489C24.8005 34.1258 24.7263 34.8612 24.4412 35.5851C24.1307 36.3735 23.83 36.9777 23.3845 37.5783ZM26.7142 39.0203L26.7232 39.0076L26.7314 38.9944C27.7521 37.3591 28.3408 35.3858 28.3299 33.3301C28.3189 31.2749 27.7095 29.3084 26.672 27.6843C26.4471 27.3277 26.5481 26.9062 26.9271 26.6324C27.1817 26.4485 27.6595 26.5136 27.943 26.8936C29.1145 28.7522 29.8221 30.9989 29.8344 33.322C29.8472 35.7245 29.1641 37.8983 28.0115 39.7705C27.7449 40.1375 27.3367 40.2403 26.9847 40.0323C26.603 39.7527 26.5333 39.2765 26.7142 39.0203ZM32.6892 24.4506L32.6992 24.4705L32.7109 24.4895C34.2982 27.0774 35.1803 30.0624 35.1975 33.2935C35.2147 36.5231 34.3652 39.5161 32.8069 42.1199C32.568 42.5041 32.1647 42.6123 31.7558 42.422C31.3836 42.1795 31.2836 41.7776 31.478 41.3716C32.8033 39.018 33.6274 36.2445 33.6117 33.3019C33.5961 30.3725 32.8301 27.6034 31.3894 25.2496C31.1944 24.8477 31.291 24.4475 31.6587 24.2021C32.1024 23.9902 32.5346 24.1455 32.6892 24.4506ZM37.3892 21.9878L37.396 22.0013L37.4037 22.0145C39.3272 25.3395 40.4573 29.1409 40.4793 33.2654C40.5012 37.3856 39.4139 41.1952 37.5295 44.538C37.2901 44.9178 36.8887 45.0241 36.4817 44.8347C36.1107 44.5929 36.0102 44.1928 36.2022 43.7881C38.0176 40.6898 38.9951 37.1001 38.9748 33.2734C38.9543 29.4367 37.8525 25.861 36.0925 22.7932C35.872 22.3454 36.0274 21.9068 36.3352 21.7508C36.787 21.5219 37.2319 21.6773 37.3892 21.9878Z" fill="white"/>
<path d="M295.498 40.5372C295.283 40.1906 294.997 39.6369 294.82 39.2269C293.789 36.826 293.743 34.3406 294.61 31.9567C295.565 29.3403 297.391 27.341 299.752 26.3181C302.719 25.0374 305.997 25.2868 308.841 26.9817C310.646 28.0215 311.926 29.6277 312.898 31.9018C313.02 32.1934 313.129 32.502 313.238 32.7683L295.498 40.5372ZM301.422 30.1772C299.314 31.086 298.229 33.0726 298.456 35.3974L307.377 31.5383C305.841 29.7292 303.846 29.129 301.422 30.1772ZM308.488 38.5717C308.483 38.5717 308.483 38.5759 308.483 38.5759L308.298 38.4491C307.764 39.3156 306.935 40.0215 305.887 40.478C303.893 41.3487 302.045 41.1247 300.716 39.9539L300.593 40.1399C300.593 40.1399 300.593 40.1356 300.589 40.1356L298.325 43.5382C298.889 43.9313 299.491 44.261 300.122 44.5273C302.622 45.5714 305.18 45.5206 307.701 44.4217C309.523 43.627 310.954 42.4181 311.93 40.8838L308.488 38.5717ZM319.437 21.3135V40.2244L322.366 41.4164L320.703 45.3135L317.472 43.9609C316.748 43.6439 316.251 43.1621 315.881 42.6168C315.523 42.0631 315.258 41.298 315.258 40.2751V21.3135H319.437ZM327.02 35.41C327.02 33.7996 327.731 32.354 328.85 31.3734L325.846 28.0088C323.809 29.8179 322.525 32.4597 322.525 35.4016C322.521 38.3477 323.805 40.9937 325.837 42.8028L328.837 39.4382C327.722 38.4534 327.02 37.0162 327.02 35.41ZM332.355 40.7739C331.766 40.7739 331.194 40.6725 330.664 40.4949L329.229 44.7767C330.209 45.1064 331.257 45.2882 332.351 45.2882C337.106 45.2924 341.074 41.9025 341.996 37.4009L337.586 36.4963C337.085 38.9437 334.935 40.7781 332.355 40.7739ZM332.368 25.5319C331.278 25.5319 330.23 25.7094 329.25 26.0349L330.672 30.3209C331.207 30.1434 331.775 30.0462 332.364 30.0462C334.947 30.0504 337.102 31.8933 337.59 34.3449L342 33.4488C341.095 28.9387 337.127 25.5361 332.368 25.5319Z" fill="white"/>
<g filter="url(#filter3_di_47_428)">
<path d="M31.0085 90.859V108.314H27.3182V94.3618H27.2159L23.2188 96.8675V93.5948L27.5398 90.859H31.0085ZM36.117 108.314V105.654L42.33 99.9016C42.8584 99.3902 43.3016 98.93 43.6596 98.5209C44.0232 98.1118 44.2988 97.7112 44.4863 97.3192C44.6738 96.9215 44.7675 96.4925 44.7675 96.0323C44.7675 95.5209 44.6511 95.0806 44.4181 94.7112C44.1851 94.3362 43.867 94.0493 43.4636 93.8505C43.0601 93.6459 42.6028 93.5436 42.0914 93.5436C41.5573 93.5436 41.0914 93.6516 40.6937 93.8675C40.2959 94.0834 39.9891 94.3931 39.7732 94.7965C39.5573 95.1999 39.4493 95.68 39.4493 96.2368H35.9465C35.9465 95.0948 36.205 94.1033 36.7221 93.2624C37.2391 92.4215 37.9636 91.7709 38.8954 91.3107C39.8272 90.8505 40.9011 90.6203 42.117 90.6203C43.367 90.6203 44.455 90.8419 45.3812 91.2851C46.313 91.7226 47.0374 92.3306 47.5545 93.109C48.0715 93.8874 48.33 94.7794 48.33 95.7851C48.33 96.4442 48.1993 97.0948 47.938 97.7368C47.6823 98.3789 47.2249 99.0919 46.5658 99.876C45.9067 100.654 44.9778 101.589 43.7789 102.68L41.2306 105.177V105.296H48.5601V108.314H36.117ZM58.6459 108.552C57.3731 108.552 56.2396 108.333 55.2453 107.896C54.2566 107.453 53.4754 106.845 52.9015 106.072C52.3334 105.294 52.0407 104.396 52.0237 103.379H55.7396C55.7623 103.805 55.9015 104.18 56.1572 104.504C56.4186 104.822 56.7652 105.069 57.197 105.245C57.6288 105.421 58.1146 105.51 58.6544 105.51C59.2169 105.51 59.714 105.41 60.1459 105.211C60.5777 105.012 60.9157 104.737 61.1601 104.385C61.4044 104.032 61.5265 103.626 61.5265 103.166C61.5265 102.7 61.3959 102.288 61.1345 101.93C60.8788 101.566 60.5095 101.282 60.0265 101.078C59.5493 100.873 58.9811 100.771 58.322 100.771H56.6941V98.0607H58.322C58.8788 98.0607 59.3703 97.9641 59.7964 97.7709C60.2282 97.5777 60.5635 97.3107 60.8021 96.9698C61.0407 96.6232 61.1601 96.2198 61.1601 95.7595C61.1601 95.322 61.0549 94.9385 60.8447 94.609C60.6402 94.2737 60.3504 94.0124 59.9754 93.8249C59.6061 93.6374 59.1743 93.5436 58.6799 93.5436C58.1799 93.5436 57.7226 93.6345 57.3078 93.8164C56.893 93.9925 56.5606 94.2453 56.3106 94.5749C56.0606 94.9044 55.9271 95.2908 55.9101 95.734H52.3731C52.3902 94.7283 52.6771 93.8419 53.2339 93.0749C53.7907 92.3078 54.5407 91.7084 55.4839 91.2766C56.4328 90.8391 57.5038 90.6203 58.697 90.6203C59.9015 90.6203 60.9555 90.8391 61.8589 91.2766C62.7623 91.7141 63.464 92.305 63.964 93.0493C64.4697 93.788 64.7197 94.6175 64.714 95.538C64.7197 96.5152 64.4157 97.3306 63.8021 97.984C63.1941 98.6374 62.4015 99.0522 61.4243 99.2283V99.3647C62.7084 99.5294 63.6856 99.9755 64.3561 100.703C65.0322 101.424 65.3674 102.328 65.3618 103.413C65.3674 104.407 65.0805 105.291 64.501 106.064C63.9271 106.836 63.1345 107.444 62.1231 107.887C61.1118 108.331 59.9527 108.552 58.6459 108.552ZM68.7103 105.245V102.339L75.9972 90.859H78.5029V94.8817H77.0199L72.4262 102.152V102.288H82.7813V105.245H68.7103ZM77.0881 108.314V104.359L77.1563 103.072V90.859H80.6165V108.314H77.0881ZM99.0898 108.552C97.8852 108.552 96.8114 108.331 95.8682 107.887C94.9307 107.444 94.1864 106.833 93.6352 106.055C93.0841 105.277 92.7972 104.385 92.7744 103.379H96.354C96.3938 104.055 96.6778 104.603 97.2063 105.024C97.7347 105.444 98.3625 105.654 99.0898 105.654C99.6693 105.654 100.181 105.527 100.624 105.271C101.073 105.01 101.422 104.649 101.672 104.189C101.928 103.723 102.056 103.189 102.056 102.586C102.056 101.973 101.925 101.433 101.664 100.967C101.408 100.501 101.053 100.137 100.598 99.876C100.144 99.6147 99.6239 99.4811 99.0386 99.4755C98.5273 99.4755 98.0301 99.5806 97.5472 99.7908C97.0699 100.001 96.6977 100.288 96.4307 100.652L93.1494 100.064L93.9761 90.859H104.647V93.876H97.0188L96.567 98.2482H96.6693C96.9761 97.8164 97.4392 97.4584 98.0585 97.1743C98.6778 96.8902 99.371 96.7482 100.138 96.7482C101.189 96.7482 102.127 96.9953 102.951 97.4897C103.774 97.984 104.425 98.663 104.902 99.5266C105.38 100.385 105.615 101.373 105.61 102.492C105.615 103.669 105.343 104.714 104.791 105.629C104.246 106.538 103.482 107.254 102.499 107.777C101.522 108.294 100.385 108.552 99.0898 108.552ZM115.842 108.552C114.945 108.546 114.078 108.396 113.243 108.1C112.413 107.805 111.669 107.325 111.01 106.66C110.351 105.995 109.828 105.115 109.442 104.018C109.061 102.921 108.871 101.575 108.871 99.9783C108.876 98.5124 109.044 97.2027 109.374 96.0493C109.709 94.8902 110.186 93.9073 110.805 93.1005C111.43 92.2936 112.178 91.68 113.047 91.2595C113.916 90.8334 114.891 90.6203 115.97 90.6203C117.135 90.6203 118.163 90.8476 119.055 91.3022C119.948 91.751 120.663 92.3618 121.203 93.1345C121.749 93.9073 122.078 94.7737 122.192 95.734H118.553C118.411 95.126 118.112 94.6487 117.658 94.3022C117.203 93.9556 116.641 93.7823 115.97 93.7823C114.834 93.7823 113.97 94.2766 113.379 95.2652C112.794 96.2539 112.496 97.5976 112.484 99.2965H112.604C112.865 98.7794 113.217 98.3391 113.661 97.9755C114.109 97.6061 114.618 97.3249 115.186 97.1317C115.76 96.9328 116.365 96.8334 117.001 96.8334C118.036 96.8334 118.956 97.0777 119.763 97.5664C120.57 98.0493 121.206 98.7141 121.672 99.5607C122.138 100.407 122.371 101.376 122.371 102.467C122.371 103.649 122.095 104.7 121.544 105.62C120.999 106.541 120.234 107.262 119.251 107.785C118.274 108.302 117.138 108.558 115.842 108.552ZM115.825 105.654C116.394 105.654 116.902 105.518 117.351 105.245C117.8 104.973 118.152 104.603 118.408 104.137C118.663 103.671 118.791 103.149 118.791 102.569C118.791 101.99 118.663 101.47 118.408 101.01C118.158 100.549 117.811 100.183 117.368 99.9101C116.925 99.6374 116.419 99.501 115.851 99.501C115.425 99.501 115.03 99.5806 114.666 99.7397C114.308 99.8987 113.993 100.12 113.72 100.404C113.453 100.689 113.243 101.018 113.09 101.393C112.936 101.762 112.859 102.157 112.859 102.578C112.859 103.14 112.987 103.654 113.243 104.12C113.504 104.586 113.857 104.958 114.3 105.237C114.749 105.515 115.257 105.654 115.825 105.654ZM126.638 108.314L133.873 93.9953V93.876H125.444V90.859H137.692V93.9186L130.447 108.314H126.638ZM147.341 108.552C146.028 108.552 144.86 108.339 143.838 107.913C142.821 107.481 142.022 106.893 141.443 106.149C140.863 105.404 140.573 104.561 140.573 103.617C140.573 102.89 140.738 102.223 141.068 101.615C141.403 101.001 141.858 100.492 142.431 100.089C143.005 99.68 143.647 99.4186 144.358 99.305V99.1857C143.426 98.9982 142.67 98.5465 142.091 97.8306C141.511 97.109 141.221 96.2709 141.221 95.3164C141.221 94.413 141.485 93.609 142.014 92.9044C142.542 92.1942 143.267 91.6374 144.187 91.234C145.113 90.8249 146.164 90.6203 147.341 90.6203C148.517 90.6203 149.565 90.8249 150.485 91.234C151.412 91.6431 152.139 92.2027 152.667 92.913C153.196 93.6175 153.463 94.4186 153.468 95.3164C153.463 96.2766 153.167 97.1147 152.582 97.8306C151.997 98.5465 151.247 98.9982 150.332 99.1857V99.305C151.031 99.4186 151.664 99.68 152.233 100.089C152.806 100.492 153.261 101.001 153.596 101.615C153.937 102.223 154.11 102.89 154.116 103.617C154.11 104.561 153.818 105.404 153.238 106.149C152.659 106.893 151.858 107.481 150.835 107.913C149.818 108.339 148.653 108.552 147.341 108.552ZM147.341 105.842C147.926 105.842 148.437 105.737 148.875 105.527C149.312 105.311 149.653 105.015 149.897 104.64C150.147 104.26 150.272 103.822 150.272 103.328C150.272 102.822 150.144 102.376 149.889 101.99C149.633 101.598 149.287 101.291 148.849 101.069C148.412 100.842 147.909 100.728 147.341 100.728C146.778 100.728 146.275 100.842 145.832 101.069C145.389 101.291 145.039 101.598 144.784 101.99C144.534 102.376 144.409 102.822 144.409 103.328C144.409 103.822 144.531 104.26 144.775 104.64C145.019 105.015 145.363 105.311 145.806 105.527C146.25 105.737 146.761 105.842 147.341 105.842ZM147.341 98.0436C147.829 98.0436 148.264 97.9442 148.644 97.7453C149.025 97.5465 149.323 97.2709 149.539 96.9186C149.755 96.5664 149.863 96.1601 149.863 95.6999C149.863 95.2453 149.755 94.8476 149.539 94.5067C149.323 94.1601 149.028 93.8902 148.653 93.697C148.278 93.4982 147.841 93.3987 147.341 93.3987C146.846 93.3987 146.409 93.4982 146.028 93.697C145.647 93.8902 145.349 94.1601 145.133 94.5067C144.923 94.8476 144.818 95.2453 144.818 95.6999C144.818 96.1601 144.926 96.5664 145.142 96.9186C145.358 97.2709 145.656 97.5465 146.037 97.7453C146.417 97.9442 146.852 98.0436 147.341 98.0436ZM170.486 90.6203C171.384 90.6203 172.248 90.7709 173.077 91.072C173.913 91.3732 174.657 91.8533 175.31 92.5124C175.969 93.1715 176.489 94.0465 176.87 95.1374C177.256 96.2226 177.452 97.555 177.458 99.1345C177.458 100.617 177.29 101.941 176.955 103.106C176.626 104.265 176.151 105.251 175.532 106.064C174.913 106.876 174.165 107.495 173.29 107.921C172.415 108.342 171.438 108.552 170.359 108.552C169.194 108.552 168.165 108.328 167.273 107.879C166.381 107.424 165.663 106.808 165.117 106.029C164.577 105.245 164.251 104.365 164.137 103.387H167.776C167.918 104.024 168.216 104.518 168.671 104.87C169.126 105.217 169.688 105.39 170.359 105.39C171.495 105.39 172.359 104.896 172.949 103.907C173.54 102.913 173.839 101.552 173.844 99.8249H173.725C173.464 100.336 173.111 100.777 172.668 101.146C172.225 101.51 171.716 101.791 171.143 101.99C170.574 102.189 169.969 102.288 169.327 102.288C168.299 102.288 167.381 102.046 166.574 101.564C165.768 101.081 165.131 100.416 164.665 99.5692C164.199 98.7226 163.966 97.7567 163.966 96.6715C163.961 95.501 164.231 94.4584 164.776 93.5436C165.322 92.6289 166.083 91.913 167.06 91.3959C168.043 90.8732 169.185 90.6147 170.486 90.6203ZM170.512 93.5181C169.938 93.5181 169.427 93.6544 168.978 93.9272C168.535 94.1999 168.182 94.5664 167.921 95.0266C167.665 95.4868 167.54 96.001 167.546 96.5692C167.546 97.1431 167.671 97.6601 167.921 98.1203C168.177 98.5749 168.523 98.9385 168.961 99.2112C169.404 99.4783 169.91 99.6118 170.478 99.6118C170.904 99.6118 171.299 99.5323 171.663 99.3732C172.026 99.2141 172.341 98.9953 172.609 98.7169C172.881 98.4328 173.094 98.1061 173.248 97.7368C173.401 97.3675 173.478 96.9755 173.478 96.5607C173.472 96.0095 173.341 95.5039 173.086 95.0436C172.83 94.5834 172.478 94.2141 172.029 93.9357C171.58 93.6573 171.074 93.5181 170.512 93.5181ZM187.819 108.697C186.353 108.691 185.091 108.331 184.034 107.615C182.983 106.899 182.174 105.862 181.605 104.504C181.043 103.146 180.765 101.512 180.77 99.6033C180.77 97.6999 181.051 96.0777 181.614 94.7368C182.182 93.3959 182.992 92.376 184.043 91.6772C185.1 90.9726 186.358 90.6203 187.819 90.6203C189.279 90.6203 190.534 90.9726 191.586 91.6772C192.642 92.3817 193.455 93.4044 194.023 94.7453C194.591 96.0806 194.872 97.6999 194.867 99.6033C194.867 101.518 194.583 103.154 194.015 104.512C193.452 105.87 192.645 106.907 191.594 107.623C190.543 108.339 189.284 108.697 187.819 108.697ZM187.819 105.637C188.819 105.637 189.617 105.135 190.213 104.129C190.81 103.123 191.105 101.615 191.1 99.6033C191.1 98.2794 190.963 97.1772 190.691 96.2965C190.424 95.4158 190.043 94.7539 189.549 94.3107C189.06 93.8675 188.483 93.6459 187.819 93.6459C186.824 93.6459 186.029 94.1431 185.432 95.1374C184.836 96.1317 184.534 97.6203 184.529 99.6033C184.529 100.944 184.662 102.064 184.929 102.961C185.202 103.853 185.586 104.524 186.08 104.973C186.574 105.416 187.154 105.637 187.819 105.637ZM206.052 90.859V108.314H202.362V94.3618H202.259L198.262 96.8675V93.5948L202.583 90.859H206.052ZM211.16 108.314V105.654L217.373 99.9016C217.902 99.3902 218.345 98.93 218.703 98.5209C219.067 98.1118 219.342 97.7112 219.53 97.3192C219.717 96.9215 219.811 96.4925 219.811 96.0323C219.811 95.5209 219.694 95.0806 219.462 94.7112C219.229 94.3362 218.91 94.0493 218.507 93.8505C218.104 93.6459 217.646 93.5436 217.135 93.5436C216.601 93.5436 216.135 93.6516 215.737 93.8675C215.339 94.0834 215.033 94.3931 214.817 94.7965C214.601 95.1999 214.493 95.68 214.493 96.2368H210.99C210.99 95.0948 211.248 94.1033 211.766 93.2624C212.283 92.4215 213.007 91.7709 213.939 91.3107C214.871 90.8505 215.944 90.6203 217.16 90.6203C218.41 90.6203 219.498 90.8419 220.425 91.2851C221.356 91.7226 222.081 92.3306 222.598 93.109C223.115 93.8874 223.373 94.7794 223.373 95.7851C223.373 96.4442 223.243 97.0948 222.981 97.7368C222.726 98.3789 222.268 99.0919 221.609 99.876C220.95 100.654 220.021 101.589 218.822 102.68L216.274 105.177V105.296H223.604V108.314H211.16ZM240.204 108.552C238.931 108.552 237.798 108.333 236.803 107.896C235.815 107.453 235.034 106.845 234.46 106.072C233.891 105.294 233.599 104.396 233.582 103.379H237.298C237.32 103.805 237.46 104.18 237.715 104.504C237.977 104.822 238.323 105.069 238.755 105.245C239.187 105.421 239.673 105.51 240.212 105.51C240.775 105.51 241.272 105.41 241.704 105.211C242.136 105.012 242.474 104.737 242.718 104.385C242.962 104.032 243.085 103.626 243.085 103.166C243.085 102.7 242.954 102.288 242.693 101.93C242.437 101.566 242.068 101.282 241.585 101.078C241.107 100.873 240.539 100.771 239.88 100.771H238.252V98.0607H239.88C240.437 98.0607 240.928 97.9641 241.355 97.7709C241.786 97.5777 242.122 97.3107 242.36 96.9698C242.599 96.6232 242.718 96.2198 242.718 95.7595C242.718 95.322 242.613 94.9385 242.403 94.609C242.198 94.2737 241.909 94.0124 241.534 93.8249C241.164 93.6374 240.732 93.5436 240.238 93.5436C239.738 93.5436 239.281 93.6345 238.866 93.8164C238.451 93.9925 238.119 94.2453 237.869 94.5749C237.619 94.9044 237.485 95.2908 237.468 95.734H233.931C233.948 94.7283 234.235 93.8419 234.792 93.0749C235.349 92.3078 236.099 91.7084 237.042 91.2766C237.991 90.8391 239.062 90.6203 240.255 90.6203C241.46 90.6203 242.514 90.8391 243.417 91.2766C244.32 91.7141 245.022 92.305 245.522 93.0493C246.028 93.788 246.278 94.6175 246.272 95.538C246.278 96.5152 245.974 97.3306 245.36 97.984C244.752 98.6374 243.96 99.0522 242.982 99.2283V99.3647C244.266 99.5294 245.244 99.9755 245.914 100.703C246.59 101.424 246.926 102.328 246.92 103.413C246.926 104.407 246.639 105.291 246.059 106.064C245.485 106.836 244.693 107.444 243.681 107.887C242.67 108.331 241.511 108.552 240.204 108.552ZM250.268 105.245V102.339L257.555 90.859H260.061V94.8817H258.578L253.984 102.152V102.288H264.339V105.245H250.268ZM258.646 108.314V104.359L258.714 103.072V90.859H262.175V108.314H258.646ZM274.133 108.552C272.929 108.552 271.855 108.331 270.912 107.887C269.974 107.444 269.23 106.833 268.679 106.055C268.128 105.277 267.841 104.385 267.818 103.379H271.397C271.437 104.055 271.721 104.603 272.25 105.024C272.778 105.444 273.406 105.654 274.133 105.654C274.713 105.654 275.224 105.527 275.667 105.271C276.116 105.01 276.466 104.649 276.716 104.189C276.971 103.723 277.099 103.189 277.099 102.586C277.099 101.973 276.968 101.433 276.707 100.967C276.451 100.501 276.096 100.137 275.642 99.876C275.187 99.6147 274.667 99.4811 274.082 99.4755C273.571 99.4755 273.074 99.5806 272.591 99.7908C272.113 100.001 271.741 100.288 271.474 100.652L268.193 100.064L269.02 90.859H279.69V93.876H272.062L271.61 98.2482H271.713C272.02 97.8164 272.483 97.4584 273.102 97.1743C273.721 96.8902 274.414 96.7482 275.181 96.7482C276.233 96.7482 277.17 96.9953 277.994 97.4897C278.818 97.984 279.468 98.663 279.946 99.5266C280.423 100.385 280.659 101.373 280.653 102.492C280.659 103.669 280.386 104.714 279.835 105.629C279.289 106.538 278.525 107.254 277.542 107.777C276.565 108.294 275.429 108.552 274.133 108.552ZM290.886 108.552C289.988 108.546 289.122 108.396 288.286 108.1C287.457 107.805 286.713 107.325 286.053 106.66C285.394 105.995 284.872 105.115 284.485 104.018C284.105 102.921 283.914 101.575 283.914 99.9783C283.92 98.5124 284.088 97.2027 284.417 96.0493C284.752 94.8902 285.23 93.9073 285.849 93.1005C286.474 92.2936 287.221 91.68 288.09 91.2595C288.96 90.8334 289.934 90.6203 291.014 90.6203C292.178 90.6203 293.207 90.8476 294.099 91.3022C294.991 91.751 295.707 92.3618 296.247 93.1345C296.792 93.9073 297.122 94.7737 297.235 95.734H293.596C293.454 95.126 293.156 94.6487 292.701 94.3022C292.247 93.9556 291.684 93.7823 291.014 93.7823C289.877 93.7823 289.014 94.2766 288.423 95.2652C287.838 96.2539 287.539 97.5976 287.528 99.2965H287.647C287.909 98.7794 288.261 98.3391 288.704 97.9755C289.153 97.6061 289.661 97.3249 290.23 97.1317C290.803 96.9328 291.409 96.8334 292.045 96.8334C293.079 96.8334 293.999 97.0777 294.806 97.5664C295.613 98.0493 296.249 98.7141 296.715 99.5607C297.181 100.407 297.414 101.376 297.414 102.467C297.414 103.649 297.139 104.7 296.588 105.62C296.042 106.541 295.278 107.262 294.295 107.785C293.318 108.302 292.181 108.558 290.886 108.552ZM290.869 105.654C291.437 105.654 291.945 105.518 292.394 105.245C292.843 104.973 293.195 104.603 293.451 104.137C293.707 103.671 293.835 103.149 293.835 102.569C293.835 101.99 293.707 101.47 293.451 101.01C293.201 100.549 292.855 100.183 292.411 99.9101C291.968 99.6374 291.463 99.501 290.894 99.501C290.468 99.501 290.073 99.5806 289.71 99.7397C289.352 99.8987 289.036 100.12 288.764 100.404C288.497 100.689 288.286 101.018 288.133 101.393C287.98 101.762 287.903 102.157 287.903 102.578C287.903 103.14 288.031 103.654 288.286 104.12C288.548 104.586 288.9 104.958 289.343 105.237C289.792 105.515 290.301 105.654 290.869 105.654Z" fill="#E8E8E8"/>
</g>
<path d="M28.6477 132.33V139.602H27.7955L23.8324 133.892H23.7614V139.602H22.8807V132.33H23.733L27.7102 138.054H27.7812V132.33H28.6477ZM32.5123 139.716C32.0198 139.716 31.5878 139.599 31.2161 139.364C30.8468 139.13 30.5579 138.802 30.3496 138.381C30.1436 137.959 30.0407 137.467 30.0407 136.903C30.0407 136.335 30.1436 135.839 30.3496 135.415C30.5579 134.992 30.8468 134.663 31.2161 134.428C31.5878 134.194 32.0198 134.077 32.5123 134.077C33.0047 134.077 33.4355 134.194 33.8049 134.428C34.1766 134.663 34.4654 134.992 34.6713 135.415C34.8797 135.839 34.9838 136.335 34.9838 136.903C34.9838 137.467 34.8797 137.959 34.6713 138.381C34.4654 138.802 34.1766 139.13 33.8049 139.364C33.4355 139.599 33.0047 139.716 32.5123 139.716ZM32.5123 138.963C32.8863 138.963 33.1941 138.867 33.4355 138.675C33.677 138.484 33.8558 138.232 33.9718 137.919C34.0878 137.607 34.1458 137.268 34.1458 136.903C34.1458 136.539 34.0878 136.199 33.9718 135.884C33.8558 135.569 33.677 135.315 33.4355 135.121C33.1941 134.927 32.8863 134.83 32.5123 134.83C32.1382 134.83 31.8304 134.927 31.589 135.121C31.3475 135.315 31.1687 135.569 31.0527 135.884C30.9367 136.199 30.8787 136.539 30.8787 136.903C30.8787 137.268 30.9367 137.607 31.0527 137.919C31.1687 138.232 31.3475 138.484 31.589 138.675C31.8304 138.867 32.1382 138.963 32.5123 138.963ZM36.2631 139.602V134.148H37.0728V135H37.1438C37.2575 134.709 37.4409 134.483 37.6942 134.322C37.9476 134.158 38.2518 134.077 38.6069 134.077C38.9667 134.077 39.2662 134.158 39.5053 134.322C39.7468 134.483 39.935 134.709 40.07 135H40.1268C40.2665 134.718 40.476 134.495 40.7553 134.329C41.0347 134.161 41.3697 134.077 41.7603 134.077C42.248 134.077 42.6469 134.229 42.957 134.535C43.2672 134.838 43.4222 135.31 43.4222 135.952V139.602H42.5842V135.952C42.5842 135.549 42.4741 135.262 42.2539 135.089C42.0337 134.916 41.7745 134.83 41.4762 134.83C41.0927 134.83 40.7956 134.946 40.5849 135.178C40.3742 135.407 40.2688 135.698 40.2688 136.051V139.602H39.4165V135.866C39.4165 135.556 39.3159 135.307 39.1147 135.117C38.9135 134.925 38.6542 134.83 38.337 134.83C38.1192 134.83 37.9156 134.888 37.7262 135.004C37.5392 135.12 37.3877 135.281 37.2717 135.486C37.158 135.69 37.1012 135.926 37.1012 136.193V139.602H36.2631ZM47.2415 139.716C46.7159 139.716 46.2625 139.6 45.8814 139.368C45.5026 139.133 45.2102 138.807 45.0043 138.388C44.8007 137.966 44.6989 137.476 44.6989 136.918C44.6989 136.359 44.8007 135.866 45.0043 135.44C45.2102 135.012 45.4967 134.678 45.8636 134.439C46.233 134.197 46.6638 134.077 47.1562 134.077C47.4403 134.077 47.7209 134.124 47.9979 134.219C48.2749 134.313 48.527 134.467 48.7543 134.68C48.9815 134.891 49.1626 135.17 49.2976 135.518C49.4325 135.866 49.5 136.295 49.5 136.804V137.159H45.2955V136.435H48.6477C48.6477 136.127 48.5862 135.852 48.4631 135.611C48.3423 135.369 48.1695 135.179 47.9446 135.039C47.7221 134.899 47.4593 134.83 47.1562 134.83C46.8224 134.83 46.5336 134.912 46.2898 135.078C46.0483 135.241 45.8625 135.455 45.7322 135.717C45.602 135.98 45.5369 136.262 45.5369 136.562V137.045C45.5369 137.457 45.608 137.807 45.75 138.093C45.8944 138.377 46.0945 138.594 46.3501 138.743C46.6058 138.89 46.9029 138.963 47.2415 138.963C47.4616 138.963 47.6605 138.932 47.8381 138.871C48.018 138.807 48.1731 138.712 48.3033 138.587C48.4335 138.459 48.5341 138.3 48.6051 138.111L49.4148 138.338C49.3295 138.613 49.1863 138.854 48.9851 139.062C48.7839 139.268 48.5353 139.429 48.2393 139.545C47.9434 139.659 47.6108 139.716 47.2415 139.716ZM55.647 139.716C55.1925 139.716 54.7912 139.601 54.4432 139.371C54.0952 139.139 53.8229 138.813 53.6264 138.391C53.4299 137.968 53.3317 137.467 53.3317 136.889C53.3317 136.316 53.4299 135.819 53.6264 135.398C53.8229 134.976 54.0964 134.651 54.4467 134.421C54.7971 134.192 55.2019 134.077 55.6612 134.077C56.0163 134.077 56.2969 134.136 56.5028 134.254C56.7112 134.37 56.8698 134.503 56.9787 134.652C57.09 134.799 57.1764 134.919 57.2379 135.014H57.3089V132.33H58.147V139.602H57.3374V138.764H57.2379C57.1764 138.864 57.0888 138.989 56.9751 139.141C56.8615 139.29 56.6993 139.424 56.4886 139.542C56.2779 139.658 55.9974 139.716 55.647 139.716ZM55.7607 138.963C56.0968 138.963 56.3809 138.875 56.6129 138.7C56.8449 138.523 57.0213 138.278 57.142 137.965C57.2628 137.65 57.3232 137.287 57.3232 136.875C57.3232 136.468 57.264 136.111 57.1456 135.806C57.0272 135.498 56.852 135.259 56.62 135.089C56.388 134.916 56.1016 134.83 55.7607 134.83C55.4055 134.83 55.1096 134.921 54.8729 135.103C54.6385 135.283 54.4621 135.528 54.3438 135.838C54.2277 136.146 54.1697 136.491 54.1697 136.875C54.1697 137.263 54.2289 137.616 54.3473 137.933C54.468 138.248 54.6456 138.499 54.88 138.686C55.1167 138.871 55.4103 138.963 55.7607 138.963ZM62.0142 139.716C61.5218 139.716 61.0897 139.599 60.718 139.364C60.3487 139.13 60.0599 138.802 59.8516 138.381C59.6456 137.959 59.5426 137.467 59.5426 136.903C59.5426 136.335 59.6456 135.839 59.8516 135.415C60.0599 134.992 60.3487 134.663 60.718 134.428C61.0897 134.194 61.5218 134.077 62.0142 134.077C62.5066 134.077 62.9375 134.194 63.3068 134.428C63.6785 134.663 63.9673 134.992 64.1733 135.415C64.3816 135.839 64.4858 136.335 64.4858 136.903C64.4858 137.467 64.3816 137.959 64.1733 138.381C63.9673 138.802 63.6785 139.13 63.3068 139.364C62.9375 139.599 62.5066 139.716 62.0142 139.716ZM62.0142 138.963C62.3883 138.963 62.696 138.867 62.9375 138.675C63.179 138.484 63.3577 138.232 63.4737 137.919C63.5897 137.607 63.6477 137.268 63.6477 136.903C63.6477 136.539 63.5897 136.199 63.4737 135.884C63.3577 135.569 63.179 135.315 62.9375 135.121C62.696 134.927 62.3883 134.83 62.0142 134.83C61.6402 134.83 61.3324 134.927 61.0909 135.121C60.8494 135.315 60.6707 135.569 60.5547 135.884C60.4387 136.199 60.3807 136.539 60.3807 136.903C60.3807 137.268 60.4387 137.607 60.5547 137.919C60.6707 138.232 60.8494 138.484 61.0909 138.675C61.3324 138.867 61.6402 138.963 62.0142 138.963ZM70.9498 134.148V134.858H68.123V134.148H70.9498ZM68.9469 132.841H69.785V138.04C69.785 138.276 69.8193 138.454 69.888 138.572C69.959 138.688 70.0489 138.767 70.1578 138.807C70.2691 138.845 70.3863 138.864 70.5094 138.864C70.6017 138.864 70.6775 138.859 70.7367 138.849C70.7959 138.838 70.8432 138.828 70.8787 138.821L71.0492 139.574C70.9924 139.595 70.9131 139.616 70.8113 139.638C70.7095 139.661 70.5804 139.673 70.4242 139.673C70.1874 139.673 69.9554 139.622 69.7282 139.521C69.5033 139.419 69.3162 139.264 69.1671 139.055C69.0203 138.847 68.9469 138.584 68.9469 138.267V132.841ZM72.2104 139.602V134.148H73.0485V139.602H72.2104ZM72.6365 133.239C72.4732 133.239 72.3323 133.183 72.214 133.072C72.098 132.96 72.04 132.827 72.04 132.67C72.04 132.514 72.098 132.38 72.214 132.269C72.3323 132.158 72.4732 132.102 72.6365 132.102C72.7999 132.102 72.9396 132.158 73.0556 132.269C73.1739 132.38 73.2331 132.514 73.2331 132.67C73.2331 132.827 73.1739 132.96 73.0556 133.072C72.9396 133.183 72.7999 133.239 72.6365 133.239ZM76.9556 134.148V134.858H74.1289V134.148H76.9556ZM74.9528 132.841H75.7908V138.04C75.7908 138.276 75.8252 138.454 75.8938 138.572C75.9648 138.688 76.0548 138.767 76.1637 138.807C76.275 138.845 76.3922 138.864 76.5153 138.864C76.6076 138.864 76.6834 138.859 76.7425 138.849C76.8017 138.838 76.8491 138.828 76.8846 138.821L77.055 139.574C76.9982 139.595 76.9189 139.616 76.8171 139.638C76.7153 139.661 76.5863 139.673 76.43 139.673C76.1933 139.673 75.9613 139.622 75.734 139.521C75.5091 139.419 75.3221 139.264 75.1729 139.055C75.0262 138.847 74.9528 138.584 74.9528 138.267V132.841ZM81.6538 137.372V134.148H82.4918V139.602H81.6538V138.679H81.5969C81.4691 138.956 81.2702 139.192 81.0004 139.386C80.7305 139.577 80.3896 139.673 79.9776 139.673C79.6367 139.673 79.3337 139.599 79.0685 139.45C78.8034 139.298 78.5951 139.071 78.4435 138.768C78.292 138.462 78.2163 138.078 78.2163 137.614V134.148H79.0543V137.557C79.0543 137.955 79.1656 138.272 79.3881 138.508C79.613 138.745 79.8995 138.864 80.2475 138.864C80.4558 138.864 80.6677 138.81 80.8832 138.704C81.101 138.597 81.2833 138.434 81.43 138.214C81.5792 137.994 81.6538 137.713 81.6538 137.372ZM84.8649 132.33V139.602H84.0268V132.33H84.8649ZM88.005 139.73C87.6593 139.73 87.3456 139.665 87.0639 139.535C86.7822 139.402 86.5585 139.212 86.3928 138.963C86.227 138.712 86.1442 138.409 86.1442 138.054C86.1442 137.741 86.2057 137.488 86.3288 137.294C86.4519 137.098 86.6165 136.944 86.8224 136.832C87.0284 136.721 87.2557 136.638 87.5043 136.584C87.7552 136.527 88.0073 136.482 88.2607 136.449C88.5921 136.406 88.8608 136.374 89.0668 136.353C89.2751 136.329 89.4266 136.29 89.5213 136.236C89.6184 136.181 89.6669 136.087 89.6669 135.952V135.923C89.6669 135.573 89.571 135.301 89.3793 135.107C89.1899 134.912 88.9022 134.815 88.5163 134.815C88.1162 134.815 87.8026 134.903 87.5753 135.078C87.348 135.253 87.1882 135.44 87.0959 135.639L86.3004 135.355C86.4425 135.024 86.6319 134.766 86.8686 134.581C87.1077 134.394 87.3681 134.264 87.6499 134.19C87.9339 134.115 88.2133 134.077 88.4879 134.077C88.6631 134.077 88.8643 134.098 89.0916 134.141C89.3213 134.181 89.5426 134.265 89.7557 134.393C89.9711 134.521 90.1499 134.714 90.2919 134.972C90.4339 135.23 90.505 135.575 90.505 136.008V139.602H89.6669V138.864H89.6243C89.5675 138.982 89.4728 139.109 89.3402 139.244C89.2076 139.379 89.0313 139.493 88.8111 139.588C88.5909 139.683 88.3222 139.73 88.005 139.73ZM88.1328 138.977C88.4643 138.977 88.7436 138.912 88.9709 138.782C89.2005 138.652 89.3733 138.484 89.4893 138.278C89.6077 138.072 89.6669 137.855 89.6669 137.628V136.861C89.6314 136.903 89.5533 136.942 89.4325 136.978C89.3142 137.011 89.1768 137.041 89.0206 137.067C88.8667 137.09 88.7164 137.112 88.5696 137.131C88.4252 137.147 88.308 137.161 88.218 137.173C88.0002 137.202 87.7966 137.248 87.6072 137.312C87.4202 137.373 87.2687 137.467 87.1527 137.592C87.0391 137.715 86.9822 137.883 86.9822 138.097C86.9822 138.388 87.09 138.608 87.3054 138.757C87.5232 138.904 87.799 138.977 88.1328 138.977ZM92.0346 139.602V134.148H92.8443V134.972H92.9011C93.0005 134.702 93.1805 134.483 93.4409 134.315C93.7013 134.147 93.9949 134.062 94.3216 134.062C94.3831 134.062 94.46 134.064 94.5524 134.066C94.6447 134.068 94.7145 134.072 94.7619 134.077V134.929C94.7335 134.922 94.6684 134.911 94.5666 134.897C94.4672 134.88 94.3618 134.872 94.2505 134.872C93.9854 134.872 93.7486 134.928 93.5403 135.039C93.3343 135.148 93.171 135.299 93.0502 135.494C92.9319 135.685 92.8727 135.904 92.8727 136.151V139.602H92.0346Z" fill="white"/>
<g filter="url(#filter4_di_47_428)">
<path d="M22.8849 149.42H25.5398L28.3438 156.261H28.4631L31.267 149.42H33.9219V159.602H31.8338V152.975H31.7493L29.1143 159.553H27.6925L25.0575 152.95H24.973V159.602H22.8849V149.42ZM37.4505 159.602H35.1436L38.6586 149.42H41.4327L44.9426 159.602H42.6358L40.0854 151.747H40.0059L37.4505 159.602ZM37.3063 155.6H42.7551V157.281H37.3063V155.6ZM44.5325 149.42H46.9437L49.2654 153.805H49.3649L51.6866 149.42H54.0978L50.3841 156.003V159.602H48.2463V156.003L44.5325 149.42ZM55.2736 159.602V149.42H57.4263V153.91H57.5605L61.2246 149.42H63.8049L60.0265 153.979L63.8496 159.602H61.2743L58.4853 155.416L57.4263 156.709V159.602H55.2736ZM68.1662 159.602V149.42H72.2429C72.992 149.42 73.6167 149.531 74.1172 149.754C74.6177 149.976 74.9938 150.284 75.2457 150.678C75.4976 151.069 75.6236 151.52 75.6236 152.031C75.6236 152.428 75.544 152.778 75.3849 153.08C75.2259 153.378 75.0071 153.623 74.7287 153.815C74.4536 154.004 74.1387 154.138 73.7841 154.218V154.317C74.1719 154.334 74.5348 154.443 74.8729 154.646C75.2143 154.848 75.491 155.131 75.7031 155.496C75.9152 155.857 76.0213 156.288 76.0213 156.788C76.0213 157.329 75.8871 157.811 75.6186 158.235C75.3535 158.656 74.9607 158.989 74.4403 159.234C73.92 159.48 73.2786 159.602 72.5163 159.602H68.1662ZM70.3189 157.842H72.0739C72.6738 157.842 73.1113 157.728 73.3864 157.499C73.6615 157.267 73.799 156.959 73.799 156.575C73.799 156.293 73.7311 156.044 73.5952 155.829C73.4593 155.613 73.2654 155.444 73.0135 155.322C72.7649 155.199 72.4683 155.138 72.1236 155.138H70.3189V157.842ZM70.3189 153.681H71.9148C72.2098 153.681 72.4716 153.63 72.7003 153.527C72.9323 153.421 73.1146 153.272 73.2472 153.08C73.383 152.887 73.451 152.657 73.451 152.388C73.451 152.021 73.3201 151.724 73.0582 151.499C72.7997 151.273 72.4318 151.16 71.9545 151.16H70.3189V153.681ZM77.4221 159.602V149.42H81.4391C82.208 149.42 82.8643 149.558 83.4078 149.833C83.9547 150.105 84.3707 150.491 84.6557 150.991C84.9441 151.489 85.0882 152.074 85.0882 152.746C85.0882 153.423 84.9424 154.004 84.6507 154.491C84.3591 154.975 83.9365 155.347 83.383 155.605C82.8328 155.864 82.1666 155.993 81.3844 155.993H78.6948V154.263H81.0364C81.4474 154.263 81.7888 154.206 82.0605 154.094C82.3323 153.981 82.5345 153.812 82.6671 153.587C82.803 153.361 82.8709 153.081 82.8709 152.746C82.8709 152.408 82.803 152.123 82.6671 151.891C82.5345 151.659 82.3307 151.484 82.0556 151.364C81.7838 151.242 81.4408 151.18 81.0265 151.18H79.5748V159.602H77.4221ZM82.9206 154.969L85.4512 159.602H83.0748L80.5989 154.969H82.9206ZM88.7623 149.42V159.602H86.6096V149.42H88.7623ZM90.1456 151.195V149.42H98.5078V151.195H95.3906V159.602H93.2628V151.195H90.1456ZM108.777 154.511C108.777 155.622 108.566 156.566 108.145 157.345C107.728 158.124 107.158 158.719 106.435 159.13C105.716 159.538 104.907 159.741 104.009 159.741C103.104 159.741 102.292 159.536 101.573 159.125C100.854 158.714 100.285 158.119 99.8675 157.34C99.4499 156.561 99.2411 155.618 99.2411 154.511C99.2411 153.401 99.4499 152.456 99.8675 151.678C100.285 150.899 100.854 150.305 101.573 149.898C102.292 149.487 103.104 149.281 104.009 149.281C104.907 149.281 105.716 149.487 106.435 149.898C107.158 150.305 107.728 150.899 108.145 151.678C108.566 152.456 108.777 153.401 108.777 154.511ZM106.594 154.511C106.594 153.792 106.486 153.186 106.271 152.692C106.059 152.198 105.759 151.823 105.371 151.568C104.983 151.313 104.529 151.185 104.009 151.185C103.489 151.185 103.034 151.313 102.647 151.568C102.259 151.823 101.957 152.198 101.742 152.692C101.53 153.186 101.424 153.792 101.424 154.511C101.424 155.231 101.53 155.837 101.742 156.331C101.957 156.825 102.259 157.199 102.647 157.455C103.034 157.71 103.489 157.837 104.009 157.837C104.529 157.837 104.983 157.71 105.371 157.455C105.759 157.199 106.059 156.825 106.271 156.331C106.486 155.837 106.594 155.231 106.594 154.511Z" fill="white"/>
</g>
<path d="M22.8807 186.602V179.33H27.2699V180.111H23.7614V182.568H27.0426V183.349H23.7614V185.821H27.3267V186.602H22.8807ZM29.3686 181.148L30.6754 183.378L31.9822 181.148H32.9482L31.1868 183.875L32.9482 186.602H31.9822L30.6754 184.486L29.3686 186.602H28.4027L30.1357 183.875L28.4027 181.148H29.3686ZM34.144 188.648V181.148H34.9537V182.014H35.0531C35.1146 181.919 35.1999 181.799 35.3088 181.652C35.42 181.503 35.5787 181.37 35.7846 181.254C35.993 181.136 36.2747 181.077 36.6298 181.077C37.0891 181.077 37.4939 181.192 37.8443 181.421C38.1947 181.651 38.4681 181.976 38.6646 182.398C38.8611 182.819 38.9593 183.316 38.9593 183.889C38.9593 184.467 38.8611 184.968 38.6646 185.391C38.4681 185.813 38.1958 186.139 37.8478 186.371C37.4998 186.601 37.0985 186.716 36.644 186.716C36.2936 186.716 36.0131 186.658 35.8024 186.542C35.5917 186.424 35.4295 186.29 35.3159 186.141C35.2022 185.989 35.1146 185.864 35.0531 185.764H34.9821V188.648H34.144ZM34.9679 183.875C34.9679 184.287 35.0282 184.65 35.149 184.965C35.2697 185.278 35.4461 185.523 35.6781 185.7C35.9101 185.875 36.1942 185.963 36.5304 185.963C36.8807 185.963 37.1731 185.871 37.4075 185.686C37.6442 185.499 37.8218 185.248 37.9402 184.933C38.0609 184.616 38.1213 184.263 38.1213 183.875C38.1213 183.491 38.0621 183.146 37.9437 182.838C37.8277 182.528 37.6513 182.283 37.4146 182.103C37.1802 181.921 36.8855 181.83 36.5304 181.83C36.1895 181.83 35.903 181.916 35.671 182.089C35.439 182.259 35.2638 182.498 35.1454 182.806C35.027 183.111 34.9679 183.468 34.9679 183.875ZM40.2377 186.602V181.148H41.0758V186.602H40.2377ZM40.6639 180.239C40.5005 180.239 40.3597 180.183 40.2413 180.072C40.1253 179.96 40.0673 179.827 40.0673 179.67C40.0673 179.514 40.1253 179.38 40.2413 179.269C40.3597 179.158 40.5005 179.102 40.6639 179.102C40.8272 179.102 40.9669 179.158 41.0829 179.269C41.2013 179.38 41.2605 179.514 41.2605 179.67C41.2605 179.827 41.2013 179.96 41.0829 180.072C40.9669 180.183 40.8272 180.239 40.6639 180.239ZM42.6108 186.602V181.148H43.4205V181.972H43.4773C43.5767 181.702 43.7566 181.483 44.017 181.315C44.2775 181.147 44.571 181.062 44.8977 181.062C44.9593 181.062 45.0362 181.064 45.1286 181.066C45.2209 181.068 45.2907 181.072 45.3381 181.077V181.929C45.3097 181.922 45.2446 181.911 45.1428 181.897C45.0433 181.88 44.938 181.872 44.8267 181.872C44.5616 181.872 44.3248 181.928 44.1165 182.039C43.9105 182.148 43.7472 182.299 43.6264 182.494C43.508 182.685 43.4489 182.904 43.4489 183.151V186.602H42.6108ZM47.9366 186.73C47.591 186.73 47.2773 186.665 46.9956 186.535C46.7138 186.402 46.4901 186.212 46.3244 185.963C46.1587 185.712 46.0758 185.409 46.0758 185.054C46.0758 184.741 46.1374 184.488 46.2605 184.294C46.3836 184.098 46.5481 183.944 46.7541 183.832C46.96 183.721 47.1873 183.638 47.4359 183.584C47.6868 183.527 47.939 183.482 48.1923 183.449C48.5237 183.406 48.7924 183.374 48.9984 183.353C49.2067 183.329 49.3583 183.29 49.4529 183.236C49.55 183.181 49.5985 183.087 49.5985 182.952V182.923C49.5985 182.573 49.5027 182.301 49.3109 182.107C49.1215 181.912 48.8339 181.815 48.448 181.815C48.0479 181.815 47.7342 181.903 47.5069 182.078C47.2797 182.253 47.1199 182.44 47.0275 182.639L46.2321 182.355C46.3741 182.024 46.5635 181.766 46.8002 181.581C47.0394 181.394 47.2998 181.264 47.5815 181.19C47.8656 181.115 48.1449 181.077 48.4196 181.077C48.5948 181.077 48.796 181.098 49.0233 181.141C49.2529 181.181 49.4743 181.265 49.6873 181.393C49.9028 181.521 50.0815 181.714 50.2235 181.972C50.3656 182.23 50.4366 182.575 50.4366 183.008V186.602H49.5985V185.864H49.5559C49.4991 185.982 49.4044 186.109 49.2718 186.244C49.1393 186.379 48.9629 186.493 48.7427 186.588C48.5225 186.683 48.2538 186.73 47.9366 186.73ZM48.0645 185.977C48.3959 185.977 48.6752 185.912 48.9025 185.782C49.1322 185.652 49.305 185.484 49.421 185.278C49.5394 185.072 49.5985 184.855 49.5985 184.628V183.861C49.563 183.903 49.4849 183.942 49.3642 183.978C49.2458 184.011 49.1085 184.041 48.9522 184.067C48.7984 184.09 48.648 184.112 48.5012 184.131C48.3568 184.147 48.2396 184.161 48.1497 184.173C47.9319 184.202 47.7283 184.248 47.5389 184.312C47.3519 184.373 47.2003 184.467 47.0843 184.592C46.9707 184.715 46.9139 184.883 46.9139 185.097C46.9139 185.388 47.0216 185.608 47.237 185.757C47.4548 185.904 47.7306 185.977 48.0645 185.977ZM54.1822 186.716C53.6708 186.716 53.2305 186.595 52.8612 186.354C52.4918 186.112 52.2077 185.78 52.0089 185.356C51.81 184.932 51.7106 184.448 51.7106 183.903C51.7106 183.349 51.8124 182.861 52.016 182.437C52.2219 182.011 52.5084 181.678 52.8754 181.439C53.2447 181.197 53.6755 181.077 54.168 181.077C54.5515 181.077 54.8971 181.148 55.2049 181.29C55.5127 181.432 55.7648 181.631 55.9613 181.886C56.1578 182.142 56.2797 182.44 56.3271 182.781H55.489C55.4251 182.533 55.283 182.312 55.0629 182.121C54.8451 181.927 54.5515 181.83 54.1822 181.83C53.8555 181.83 53.569 181.915 53.3228 182.085C53.079 182.253 52.8884 182.491 52.7511 182.799C52.6161 183.104 52.5487 183.463 52.5487 183.875C52.5487 184.296 52.6149 184.663 52.7475 184.976C52.8825 185.288 53.0719 185.531 53.3157 185.704C53.5619 185.877 53.8507 185.963 54.1822 185.963C54.4 185.963 54.5977 185.925 54.7752 185.849C54.9528 185.774 55.1031 185.665 55.2262 185.523C55.3493 185.381 55.4369 185.21 55.489 185.011H56.3271C56.2797 185.333 56.1625 185.623 55.9755 185.881C55.7908 186.137 55.5458 186.341 55.2404 186.492C54.9374 186.641 54.5846 186.716 54.1822 186.716ZM53.7844 186.574H54.4805L54.4237 186.858C54.6083 186.886 54.7776 186.963 54.9315 187.089C55.0853 187.217 55.1623 187.419 55.1623 187.696C55.1623 188.001 55.0356 188.25 54.7823 188.442C54.5314 188.636 54.1609 188.733 53.6708 188.733L53.6424 188.179C53.8626 188.179 54.0449 188.143 54.1893 188.072C54.3361 188.004 54.4094 187.888 54.4094 187.724C54.4094 187.561 54.3491 187.45 54.2283 187.391C54.1076 187.331 53.9123 187.291 53.6424 187.27L53.7844 186.574ZM59.1573 186.73C58.8117 186.73 58.498 186.665 58.2163 186.535C57.9345 186.402 57.7108 186.212 57.5451 185.963C57.3794 185.712 57.2965 185.409 57.2965 185.054C57.2965 184.741 57.3581 184.488 57.4812 184.294C57.6043 184.098 57.7688 183.944 57.9748 183.832C58.1808 183.721 58.408 183.638 58.6566 183.584C58.9076 183.527 59.1597 183.482 59.413 183.449C59.7444 183.406 60.0131 183.374 60.2191 183.353C60.4274 183.329 60.579 183.29 60.6737 183.236C60.7707 183.181 60.8192 183.087 60.8192 182.952V182.923C60.8192 182.573 60.7234 182.301 60.5316 182.107C60.3422 181.912 60.0546 181.815 59.6687 181.815C59.2686 181.815 58.9549 181.903 58.7276 182.078C58.5004 182.253 58.3406 182.44 58.2482 182.639L57.4528 182.355C57.5948 182.024 57.7842 181.766 58.021 181.581C58.2601 181.394 58.5205 181.264 58.8022 181.19C59.0863 181.115 59.3656 181.077 59.6403 181.077C59.8155 181.077 60.0167 181.098 60.244 181.141C60.4736 181.181 60.695 181.265 60.908 181.393C61.1235 181.521 61.3022 181.714 61.4442 181.972C61.5863 182.23 61.6573 182.575 61.6573 183.008V186.602H60.8192V185.864H60.7766C60.7198 185.982 60.6251 186.109 60.4925 186.244C60.36 186.379 60.1836 186.493 59.9634 186.588C59.7433 186.683 59.4746 186.73 59.1573 186.73ZM59.2852 185.977C59.6166 185.977 59.896 185.912 60.1232 185.782C60.3529 185.652 60.5257 185.484 60.6417 185.278C60.7601 185.072 60.8192 184.855 60.8192 184.628V183.861C60.7837 183.903 60.7056 183.942 60.5849 183.978C60.4665 184.011 60.3292 184.041 60.1729 184.067C60.0191 184.09 59.8687 184.112 59.7219 184.131C59.5775 184.147 59.4603 184.161 59.3704 184.173C59.1526 184.202 58.949 184.248 58.7596 184.312C58.5726 184.373 58.421 184.467 58.305 184.592C58.1914 184.715 58.1346 184.883 58.1346 185.097C58.1346 185.388 58.2423 185.608 58.4577 185.757C58.6755 185.904 58.9513 185.977 59.2852 185.977ZM58.6033 180.494L57.9499 180.466C57.9499 180.104 58.0529 179.808 58.2589 179.578C58.4672 179.346 58.7241 179.23 59.0295 179.23C59.1644 179.23 59.284 179.254 59.3881 179.301C59.4923 179.346 59.5917 179.398 59.6864 179.457C59.7811 179.517 59.8782 179.57 59.9776 179.617C60.0794 179.662 60.1942 179.685 60.3221 179.685C60.457 179.685 60.5707 179.633 60.663 179.528C60.7577 179.422 60.805 179.294 60.805 179.145L61.4442 179.202C61.4442 179.571 61.3401 179.865 61.1317 180.082C60.9258 180.3 60.6701 180.409 60.3647 180.409C60.2013 180.409 60.0664 180.387 59.9599 180.342C59.8533 180.294 59.7586 180.241 59.6758 180.182C59.5929 180.123 59.5053 180.071 59.413 180.026C59.3207 179.978 59.207 179.955 59.0721 179.955C58.9371 179.955 58.8247 180.008 58.7347 180.114C58.6471 180.218 58.6033 180.345 58.6033 180.494ZM65.4029 186.716C64.9105 186.716 64.4784 186.599 64.1067 186.364C63.7374 186.13 63.4486 185.802 63.2402 185.381C63.0343 184.959 62.9313 184.467 62.9313 183.903C62.9313 183.335 63.0343 182.839 63.2402 182.415C63.4486 181.992 63.7374 181.663 64.1067 181.428C64.4784 181.194 64.9105 181.077 65.4029 181.077C65.8953 181.077 66.3262 181.194 66.6955 181.428C67.0672 181.663 67.356 181.992 67.562 182.415C67.7703 182.839 67.8745 183.335 67.8745 183.903C67.8745 184.467 67.7703 184.959 67.562 185.381C67.356 185.802 67.0672 186.13 66.6955 186.364C66.3262 186.599 65.8953 186.716 65.4029 186.716ZM65.4029 185.963C65.7769 185.963 66.0847 185.867 66.3262 185.675C66.5676 185.484 66.7464 185.232 66.8624 184.919C66.9784 184.607 67.0364 184.268 67.0364 183.903C67.0364 183.539 66.9784 183.199 66.8624 182.884C66.7464 182.569 66.5676 182.315 66.3262 182.121C66.0847 181.927 65.7769 181.83 65.4029 181.83C65.0288 181.83 64.7211 181.927 64.4796 182.121C64.2381 182.315 64.0594 182.569 63.9434 182.884C63.8274 183.199 63.7694 183.539 63.7694 183.903C63.7694 184.268 63.8274 184.607 63.9434 184.919C64.0594 185.232 64.2381 185.484 64.4796 185.675C64.7211 185.867 65.0288 185.963 65.4029 185.963Z" fill="white"/>
<g filter="url(#filter5_di_47_428)">
<path d="M26.8175 206.826C25.9624 206.823 25.2266 206.612 24.6101 206.195C23.9969 205.777 23.5246 205.172 23.1932 204.38C22.8651 203.588 22.7027 202.635 22.706 201.521C22.706 200.411 22.87 199.465 23.1982 198.683C23.5296 197.9 24.0019 197.305 24.6151 196.898C25.2315 196.487 25.9657 196.281 26.8175 196.281C27.6693 196.281 28.4018 196.487 29.0149 196.898C29.6314 197.309 30.1054 197.905 30.4368 198.687C30.7682 199.466 30.9323 200.411 30.929 201.521C30.929 202.638 30.7633 203.593 30.4318 204.385C30.1037 205.177 29.633 205.782 29.0199 206.2C28.4067 206.617 27.6726 206.826 26.8175 206.826ZM26.8175 205.041C27.4008 205.041 27.8665 204.748 28.2145 204.161C28.5625 203.575 28.7348 202.695 28.7315 201.521C28.7315 200.749 28.652 200.106 28.4929 199.592C28.3371 199.079 28.1151 198.692 27.8267 198.434C27.5417 198.175 27.2053 198.046 26.8175 198.046C26.2375 198.046 25.7734 198.336 25.4254 198.916C25.0774 199.496 24.9018 200.365 24.8984 201.521C24.8984 202.303 24.9763 202.956 25.1321 203.48C25.2912 204 25.5149 204.392 25.8033 204.653C26.0916 204.912 26.4297 205.041 26.8175 205.041ZM32.464 206.602V205.051L36.0882 201.695C36.3965 201.397 36.655 201.129 36.8638 200.89C37.0759 200.651 37.2367 200.418 37.3461 200.189C37.4554 199.957 37.5101 199.707 37.5101 199.438C37.5101 199.14 37.4422 198.883 37.3063 198.668C37.1704 198.449 36.9848 198.281 36.7495 198.165C36.5141 198.046 36.2473 197.986 35.949 197.986C35.6375 197.986 35.3657 198.049 35.1337 198.175C34.9017 198.301 34.7227 198.482 34.5968 198.717C34.4708 198.953 34.4078 199.233 34.4078 199.558H32.3645C32.3645 198.891 32.5153 198.313 32.8169 197.822C33.1185 197.332 33.5411 196.952 34.0847 196.684C34.6283 196.415 35.2547 196.281 35.964 196.281C36.6931 196.281 37.3278 196.41 37.8681 196.669C38.4116 196.924 38.8342 197.279 39.1358 197.733C39.4374 198.187 39.5882 198.707 39.5882 199.294C39.5882 199.678 39.512 200.058 39.3596 200.433C39.2104 200.807 38.9436 201.223 38.5591 201.68C38.1747 202.134 37.6328 202.68 36.9334 203.316L35.4469 204.773V204.842H39.7225V206.602H32.464ZM45.7369 195.943L42.4556 208.133H40.631L43.9123 195.943H45.7369ZM50.5009 206.741C49.7585 206.741 49.0972 206.614 48.5172 206.359C47.9405 206.1 47.4848 205.745 47.15 205.295C46.8186 204.841 46.6479 204.317 46.638 203.724H48.8056C48.8188 203.972 48.9 204.191 49.0492 204.38C49.2016 204.566 49.4038 204.71 49.6557 204.812C49.9076 204.915 50.191 204.967 50.5059 204.967C50.834 204.967 51.124 204.909 51.3759 204.793C51.6278 204.677 51.825 204.516 51.9675 204.31C52.11 204.105 52.1813 203.868 52.1813 203.599C52.1813 203.328 52.1051 203.087 51.9526 202.879C51.8034 202.666 51.588 202.501 51.3063 202.381C51.0279 202.262 50.6964 202.202 50.312 202.202H49.3624V200.621H50.312C50.6368 200.621 50.9235 200.565 51.1721 200.452C51.4239 200.34 51.6195 200.184 51.7587 199.985C51.8979 199.783 51.9675 199.548 51.9675 199.279C51.9675 199.024 51.9062 198.8 51.7836 198.608C51.6642 198.412 51.4952 198.26 51.2765 198.151C51.061 198.041 50.8091 197.986 50.5208 197.986C50.2291 197.986 49.9623 198.04 49.7203 198.146C49.4784 198.248 49.2845 198.396 49.1387 198.588C48.9928 198.78 48.915 199.006 48.905 199.264H46.8418C46.8517 198.678 47.0191 198.16 47.3439 197.713C47.6687 197.266 48.1062 196.916 48.6564 196.664C49.2099 196.409 49.8347 196.281 50.5307 196.281C51.2334 196.281 51.8482 196.409 52.3752 196.664C52.9022 196.919 53.3115 197.264 53.6032 197.698C53.8981 198.129 54.044 198.613 54.0407 199.15C54.044 199.72 53.8667 200.196 53.5087 200.577C53.1541 200.958 52.6917 201.2 52.1216 201.303V201.382C52.8707 201.478 53.4408 201.738 53.8319 202.163C54.2263 202.584 54.4218 203.111 54.4185 203.744C54.4218 204.324 54.2544 204.839 53.9164 205.29C53.5816 205.741 53.1193 206.095 52.5293 206.354C51.9393 206.612 51.2632 206.741 50.5009 206.741ZM59.9581 206.826C59.103 206.823 58.3672 206.612 57.7507 206.195C57.1375 205.777 56.6652 205.172 56.3338 204.38C56.0057 203.588 55.8433 202.635 55.8466 201.521C55.8466 200.411 56.0107 199.465 56.3388 198.683C56.6702 197.9 57.1425 197.305 57.7557 196.898C58.3722 196.487 59.1063 196.281 59.9581 196.281C60.8099 196.281 61.5424 196.487 62.1555 196.898C62.772 197.309 63.246 197.905 63.5774 198.687C63.9089 199.466 64.0729 200.411 64.0696 201.521C64.0696 202.638 63.9039 203.593 63.5724 204.385C63.2443 205.177 62.7737 205.782 62.1605 206.2C61.5473 206.617 60.8132 206.826 59.9581 206.826ZM59.9581 205.041C60.5414 205.041 61.0071 204.748 61.3551 204.161C61.7031 203.575 61.8755 202.695 61.8722 201.521C61.8722 200.749 61.7926 200.106 61.6335 199.592C61.4777 199.079 61.2557 198.692 60.9673 198.434C60.6823 198.175 60.3459 198.046 59.9581 198.046C59.3781 198.046 58.9141 198.336 58.5661 198.916C58.218 199.496 58.0424 200.365 58.0391 201.521C58.0391 202.303 58.117 202.956 58.2727 203.48C58.4318 204 58.6555 204.392 58.9439 204.653C59.2322 204.912 59.5703 205.041 59.9581 205.041Z" fill="white"/>
</g>
<path d="M179.623 181.602H178.743C178.691 181.349 178.599 181.126 178.469 180.935C178.341 180.743 178.185 180.582 178 180.452C177.818 180.319 177.616 180.22 177.393 180.153C177.171 180.087 176.939 180.054 176.697 180.054C176.257 180.054 175.858 180.165 175.5 180.388C175.145 180.61 174.862 180.938 174.652 181.371C174.443 181.805 174.339 182.336 174.339 182.966C174.339 183.596 174.443 184.127 174.652 184.56C174.862 184.994 175.145 185.321 175.5 185.544C175.858 185.767 176.257 185.878 176.697 185.878C176.939 185.878 177.171 185.845 177.393 185.778C177.616 185.712 177.818 185.614 178 185.484C178.185 185.351 178.341 185.189 178.469 184.997C178.599 184.803 178.691 184.58 178.743 184.33H179.623C179.557 184.701 179.436 185.034 179.261 185.327C179.086 185.621 178.868 185.871 178.608 186.077C178.347 186.28 178.055 186.435 177.731 186.542C177.409 186.648 177.064 186.702 176.697 186.702C176.077 186.702 175.525 186.55 175.042 186.247C174.559 185.944 174.179 185.513 173.902 184.955C173.625 184.396 173.487 183.733 173.487 182.966C173.487 182.199 173.625 181.536 173.902 180.977C174.179 180.419 174.559 179.988 175.042 179.685C175.525 179.382 176.077 179.23 176.697 179.23C177.064 179.23 177.409 179.283 177.731 179.39C178.055 179.496 178.347 179.653 178.608 179.859C178.868 180.062 179.086 180.311 179.261 180.604C179.436 180.896 179.557 181.228 179.623 181.602ZM181.345 179.33L183.504 185.452H183.589L185.748 179.33H186.671L184.001 186.602H183.092L180.421 179.33H181.345ZM193.315 181.602H192.434C192.382 181.349 192.291 181.126 192.161 180.935C192.033 180.743 191.877 180.582 191.692 180.452C191.51 180.319 191.307 180.22 191.085 180.153C190.862 180.087 190.63 180.054 190.389 180.054C189.948 180.054 189.549 180.165 189.192 180.388C188.837 180.61 188.554 180.938 188.343 181.371C188.135 181.805 188.031 182.336 188.031 182.966C188.031 183.596 188.135 184.127 188.343 184.56C188.554 184.994 188.837 185.321 189.192 185.544C189.549 185.767 189.948 185.878 190.389 185.878C190.63 185.878 190.862 185.845 191.085 185.778C191.307 185.712 191.51 185.614 191.692 185.484C191.877 185.351 192.033 185.189 192.161 184.997C192.291 184.803 192.382 184.58 192.434 184.33H193.315C193.248 184.701 193.128 185.034 192.953 185.327C192.777 185.621 192.56 185.871 192.299 186.077C192.039 186.28 191.746 186.435 191.422 186.542C191.1 186.648 190.756 186.702 190.389 186.702C189.768 186.702 189.217 186.55 188.734 186.247C188.251 185.944 187.871 185.513 187.594 184.955C187.317 184.396 187.178 183.733 187.178 182.966C187.178 182.199 187.317 181.536 187.594 180.977C187.871 180.419 188.251 179.988 188.734 179.685C189.217 179.382 189.768 179.23 190.389 179.23C190.756 179.23 191.1 179.283 191.422 179.39C191.746 179.496 192.039 179.653 192.299 179.859C192.56 180.062 192.777 180.311 192.953 180.604C193.128 180.896 193.248 181.228 193.315 181.602Z" fill="white"/>
<path d="M173.716 206.602V205.051L177.34 201.695C177.648 201.397 177.907 201.129 178.116 200.89C178.328 200.651 178.488 200.418 178.598 200.189C178.707 199.957 178.762 199.707 178.762 199.438C178.762 199.14 178.694 198.883 178.558 198.668C178.422 198.449 178.236 198.281 178.001 198.165C177.766 198.046 177.499 197.986 177.201 197.986C176.889 197.986 176.617 198.049 176.385 198.175C176.153 198.301 175.974 198.482 175.848 198.717C175.723 198.953 175.66 199.233 175.66 199.558H173.616C173.616 198.891 173.767 198.313 174.069 197.822C174.37 197.332 174.793 196.952 175.336 196.684C175.88 196.415 176.506 196.281 177.216 196.281C177.945 196.281 178.58 196.41 179.12 196.669C179.663 196.924 180.086 197.279 180.388 197.733C180.689 198.187 180.84 198.707 180.84 199.294C180.84 199.678 180.764 200.058 180.611 200.433C180.462 200.807 180.195 201.223 179.811 201.68C179.426 202.134 178.884 202.68 178.185 203.316L176.699 204.773V204.842H180.974V206.602H173.716ZM186.298 206.741C185.555 206.741 184.894 206.614 184.314 206.359C183.737 206.1 183.281 205.745 182.947 205.295C182.615 204.841 182.445 204.317 182.435 203.724H184.602C184.615 203.972 184.697 204.191 184.846 204.38C184.998 204.566 185.2 204.71 185.452 204.812C185.704 204.915 185.988 204.967 186.302 204.967C186.631 204.967 186.921 204.909 187.173 204.793C187.424 204.677 187.622 204.516 187.764 204.31C187.907 204.105 187.978 203.868 187.978 203.599C187.978 203.328 187.902 203.087 187.749 202.879C187.6 202.666 187.385 202.501 187.103 202.381C186.825 202.262 186.493 202.202 186.109 202.202H185.159V200.621H186.109C186.433 200.621 186.72 200.565 186.969 200.452C187.221 200.34 187.416 200.184 187.555 199.985C187.695 199.783 187.764 199.548 187.764 199.279C187.764 199.024 187.703 198.8 187.58 198.608C187.461 198.412 187.292 198.26 187.073 198.151C186.858 198.041 186.606 197.986 186.317 197.986C186.026 197.986 185.759 198.04 185.517 198.146C185.275 198.248 185.081 198.396 184.935 198.588C184.789 198.78 184.712 199.006 184.702 199.264H182.638C182.648 198.678 182.816 198.16 183.141 197.713C183.465 197.266 183.903 196.916 184.453 196.664C185.007 196.409 185.631 196.281 186.327 196.281C187.03 196.281 187.645 196.409 188.172 196.664C188.699 196.919 189.108 197.264 189.4 197.698C189.695 198.129 189.841 198.613 189.837 199.15C189.841 199.72 189.663 200.196 189.305 200.577C188.951 200.958 188.488 201.2 187.918 201.303V201.382C188.667 201.478 189.237 201.738 189.628 202.163C190.023 202.584 190.218 203.111 190.215 203.744C190.218 204.324 190.051 204.839 189.713 205.29C189.378 205.741 188.916 206.095 188.326 206.354C187.736 206.612 187.06 206.741 186.298 206.741ZM195.755 206.826C194.9 206.823 194.164 206.612 193.547 206.195C192.934 205.777 192.462 205.172 192.13 204.38C191.802 203.588 191.64 202.635 191.643 201.521C191.643 200.411 191.807 199.465 192.135 198.683C192.467 197.9 192.939 197.305 193.552 196.898C194.169 196.487 194.903 196.281 195.755 196.281C196.607 196.281 197.339 196.487 197.952 196.898C198.569 197.309 199.043 197.905 199.374 198.687C199.705 199.466 199.87 200.411 199.866 201.521C199.866 202.638 199.701 203.593 199.369 204.385C199.041 205.177 198.57 205.782 197.957 206.2C197.344 206.617 196.61 206.826 195.755 206.826ZM195.755 205.041C196.338 205.041 196.804 204.748 197.152 204.161C197.5 203.575 197.672 202.695 197.669 201.521C197.669 200.749 197.589 200.106 197.43 199.592C197.274 199.079 197.052 198.692 196.764 198.434C196.479 198.175 196.143 198.046 195.755 198.046C195.175 198.046 194.711 198.336 194.363 198.916C194.015 199.496 193.839 200.365 193.836 201.521C193.836 202.303 193.914 202.956 194.069 203.48C194.228 204 194.452 204.392 194.741 204.653C195.029 204.912 195.367 205.041 195.755 205.041Z" fill="white"/>
<g opacity="0.7">
<rect x="305.23" y="179.373" width="36.3209" height="27.4591" rx="4.20321" fill="white" fill-opacity="0.26" stroke="white" stroke-width="0.898396"/>
<path d="M305.362 187.647H315.249C316.533 187.647 317.575 188.688 317.575 189.973V194.48M317.575 206.721V201.313M317.575 201.313V194.48M317.575 201.313H305.362M317.575 194.48H305.362" stroke="white" stroke-width="0.898396"/>
<path d="M341.418 187.647H329.787M329.787 187.647V194.48M329.787 187.647V179.505M329.787 206.721V201.313M329.787 201.313V194.48M329.787 201.313H341.418M329.787 194.48H341.418" stroke="white" stroke-width="0.898396"/>
</g>
<defs>
<filter id="filter0_b_47_428" x="-22.1752" y="-22.8616" width="408.35" height="278.35" filterUnits="userSpaceOnUse" color-interpolation-filters="sRGB">
<feFlood flood-opacity="0" result="BackgroundImageFix"/>
<feGaussianBlur in="BackgroundImageFix" stdDeviation="11.4545"/>
<feComposite in2="SourceAlpha" operator="in" result="effect1_backgroundBlur_47_428"/>
<feBlend mode="normal" in="SourceGraphic" in2="effect1_backgroundBlur_47_428" result="shape"/>
</filter>
<filter id="filter1_f_47_428" x="45.2627" y="-223.972" width="468.777" height="351.306" filterUnits="userSpaceOnUse" color-interpolation-filters="sRGB">
<feFlood flood-opacity="0" result="BackgroundImageFix"/>
<feBlend mode="normal" in="SourceGraphic" in2="BackgroundImageFix" result="shape"/>
<feGaussianBlur stdDeviation="27.9144" result="effect1_foregroundBlur_47_428"/>
</filter>
<filter id="filter2_f_47_428" x="-7.12112" y="-258.222" width="468.777" height="351.306" filterUnits="userSpaceOnUse" color-interpolation-filters="sRGB">
<feFlood flood-opacity="0" result="BackgroundImageFix"/>
<feBlend mode="normal" in="SourceGraphic" in2="BackgroundImageFix" result="shape"/>
<feGaussianBlur stdDeviation="27.9144" result="effect1_foregroundBlur_47_428"/>
</filter>
<filter id="filter3_di_47_428" x="20.0102" y="88.6867" width="280.613" height="24.5023" filterUnits="userSpaceOnUse" color-interpolation-filters="sRGB">
<feFlood flood-opacity="0" result="BackgroundImageFix"/>
<feColorMatrix in="SourceAlpha" type="matrix" values="0 0 0 0 0 0 0 0 0 0 0 0 0 0 0 0 0 0 127 0" result="hardAlpha"/>
<feOffset dy="1.28342"/>
<feGaussianBlur stdDeviation="1.60428"/>
<feComposite in2="hardAlpha" operator="out"/>
<feColorMatrix type="matrix" values="0 0 0 0 0.0916667 0 0 0 0 0.0916667 0 0 0 0 0.0916667 0 0 0 0.4 0"/>
<feBlend mode="normal" in2="BackgroundImageFix" result="effect1_dropShadow_47_428"/>
<feBlend mode="normal" in="SourceGraphic" in2="effect1_dropShadow_47_428" result="shape"/>
<feColorMatrix in="SourceAlpha" type="matrix" values="0 0 0 0 0 0 0 0 0 0 0 0 0 0 0 0 0 0 127 0" result="hardAlpha"/>
<feOffset dy="2.56684"/>
<feGaussianBlur stdDeviation="1.28342"/>
<feComposite in2="hardAlpha" operator="arithmetic" k2="-1" k3="1"/>
<feColorMatrix type="matrix" values="0 0 0 0 0.683333 0 0 0 0 0.683333 0 0 0 0 0.683333 0 0 0 0.25 0"/>
<feBlend mode="normal" in2="shape" result="effect2_innerShadow_47_428"/>
</filter>
<filter id="filter4_di_47_428" x="20.318" y="149.281" width="91.0254" height="15.5939" filterUnits="userSpaceOnUse" color-interpolation-filters="sRGB">
<feFlood flood-opacity="0" result="BackgroundImageFix"/>
<feColorMatrix in="SourceAlpha" type="matrix" values="0 0 0 0 0 0 0 0 0 0 0 0 0 0 0 0 0 0 127 0" result="hardAlpha"/>
<feOffset dy="2.56684"/>
<feGaussianBlur stdDeviation="1.28342"/>
<feComposite in2="hardAlpha" operator="out"/>
<feColorMatrix type="matrix" values="0 0 0 0 0.0875 0 0 0 0 0.0875 0 0 0 0 0.0875 0 0 0 0.16 0"/>
<feBlend mode="normal" in2="BackgroundImageFix" result="effect1_dropShadow_47_428"/>
<feBlend mode="normal" in="SourceGraphic" in2="effect1_dropShadow_47_428" result="shape"/>
<feColorMatrix in="SourceAlpha" type="matrix" values="0 0 0 0 0 0 0 0 0 0 0 0 0 0 0 0 0 0 127 0" result="hardAlpha"/>
<feOffset dy="2.56684"/>
<feGaussianBlur stdDeviation="1.28342"/>
<feComposite in2="hardAlpha" operator="arithmetic" k2="-1" k3="1"/>
<feColorMatrix type="matrix" values="0 0 0 0 0.682353 0 0 0 0 0.682353 0 0 0 0 0.682353 0 0 0 0.25 0"/>
<feBlend mode="normal" in2="shape" result="effect2_innerShadow_47_428"/>
</filter>
<filter id="filter5_di_47_428" x="20.1342" y="195.943" width="46.5072" height="17.324" filterUnits="userSpaceOnUse" color-interpolation-filters="sRGB">
<feFlood flood-opacity="0" result="BackgroundImageFix"/>
<feColorMatrix in="SourceAlpha" type="matrix" values="0 0 0 0 0 0 0 0 0 0 0 0 0 0 0 0 0 0 127 0" result="hardAlpha"/>
<feOffset dy="2.56684"/>
<feGaussianBlur stdDeviation="1.28342"/>
<feComposite in2="hardAlpha" operator="out"/>
<feColorMatrix type="matrix" values="0 0 0 0 0.0875 0 0 0 0 0.0875 0 0 0 0 0.0875 0 0 0 0.16 0"/>
<feBlend mode="normal" in2="BackgroundImageFix" result="effect1_dropShadow_47_428"/>
<feBlend mode="normal" in="SourceGraphic" in2="effect1_dropShadow_47_428" result="shape"/>
<feColorMatrix in="SourceAlpha" type="matrix" values="0 0 0 0 0 0 0 0 0 0 0 0 0 0 0 0 0 0 127 0" result="hardAlpha"/>
<feOffset dy="2.56684"/>
<feGaussianBlur stdDeviation="1.28342"/>
<feComposite in2="hardAlpha" operator="arithmetic" k2="-1" k3="1"/>
<feColorMatrix type="matrix" values="0 0 0 0 0.682353 0 0 0 0 0.682353 0 0 0 0 0.682353 0 0 0 0.25 0"/>
<feBlend mode="normal" in2="shape" result="effect2_innerShadow_47_428"/>
</filter>
<linearGradient id="paint0_linear_47_428" x1="2" y1="1.31352" x2="130.405" y2="323.589" gradientUnits="userSpaceOnUse">
<stop stop-color="white" stop-opacity="0.4"/>
<stop offset="1" stop-color="white" stop-opacity="0"/>
</linearGradient>
<radialGradient id="paint1_radial_47_428" cx="0" cy="0" r="1" gradientUnits="userSpaceOnUse" gradientTransform="translate(2 1.31352) rotate(32.5741) scale(427.2 269.348)">
<stop stop-color="white" stop-opacity="0.7"/>
<stop offset="0.677083" stop-color="#B691FF" stop-opacity="0.4"/>
<stop offset="1" stop-color="white" stop-opacity="0"/>
</radialGradient>
<linearGradient id="paint2_linear_47_428" x1="351.951" y1="227.48" x2="316.94" y2="83.5003" gradientUnits="userSpaceOnUse">
<stop stop-color="white" stop-opacity="0.32"/>
<stop offset="0.140625" stop-color="#F9FFF5"/>
<stop offset="1" stop-color="white" stop-opacity="0"/>
</linearGradient>
<linearGradient id="paint3_linear_47_428" x1="357.631" y1="3.05595" x2="323.401" y2="147.961" gradientUnits="userSpaceOnUse">
<stop stop-color="#ED0C0C"/>
<stop offset="1" stop-color="white" stop-opacity="0"/>
</linearGradient>
</defs>
</svg>
